<svg xmlns="http://www.w3.org/2000/svg" xmlns:xlink="http://www.w3.org/1999/xlink" version="1.1" style="enable-background:new 0 0 512.001 512.001;" xml:space="preserve" width="512.001" height="512.001"><rect id="backgroundrect" width="100%" height="100%" x="0" y="0" fill="none" stroke="none"/>









































<g class="currentLayer" style=""><title>Layer 1</title><g id="svg_1" class="" fill="#ffffff" fill-opacity="1">
	<g id="svg_2" fill="#ffffff" fill-opacity="1">
		<rect x="116.66999816894531" y="105.53500366210938" width="79.38899993896484" height="15.668999671936035" id="svg_3" fill="#ffffff" fill-opacity="1"/>
	</g>
</g><g id="svg_4" class="" fill="#ffffff" fill-opacity="1">
	<g id="svg_5" fill="#ffffff" fill-opacity="1">
		<path d="M190.818,25.978L156.181,0l-34.656,25.993L70.063,14.501L111.5,97.174h89.364l41.436-82.72L190.818,25.978z     M156.181,19.922l14.179,10.635l-14.181,3.174l-14.186-3.168L156.181,19.922z M191.188,81.504h-70.014L98.861,36.986l57.323,12.8    l57.32-12.831L191.188,81.504z" id="svg_6" fill="#ffffff" fill-opacity="1"/>
	</g>
</g><g id="svg_7" class="selected" fill="#ffffff" fill-opacity="1">
	<g id="svg_8" fill="#ffffff" fill-opacity="1">
		<rect x="307.8299865722656" y="496.2120056152344" width="63.720001220703125" height="15.668999671936035" id="svg_9" fill="#ffffff" fill-opacity="1"/>
	</g>
</g><g id="svg_10" class="" fill="#ffffff" fill-opacity="1">
	<g id="svg_11" fill="#ffffff" fill-opacity="1">
		<rect x="323.4989929199219" y="472.1860046386719" width="63.720001220703125" height="15.668999671936035" id="svg_12" fill="#ffffff" fill-opacity="1"/>
	</g>
</g><g id="svg_13" class="" fill="#ffffff" fill-opacity="1">
	<g id="svg_14" fill="#ffffff" fill-opacity="1">
		<rect x="299.4729919433594" y="448.1610107421875" width="63.720001220703125" height="15.668999671936035" id="svg_15" fill="#ffffff" fill-opacity="1"/>
	</g>
</g><g id="svg_16" class="" fill="#ffffff" fill-opacity="1">
	<g id="svg_17" fill="#ffffff" fill-opacity="1">
		<rect x="307.8299865722656" y="424.135009765625" width="63.720001220703125" height="15.668999671936035" id="svg_18" fill="#ffffff" fill-opacity="1"/>
	</g>
</g><g id="svg_19" class="" fill="#ffffff" fill-opacity="1">
	<g id="svg_20" fill="#ffffff" fill-opacity="1">
		<rect x="307.8299865722656" y="400.1099853515625" width="63.720001220703125" height="15.668999671936035" id="svg_21" fill="#ffffff" fill-opacity="1"/>
	</g>
</g><g id="svg_22" class="" fill="#ffffff" fill-opacity="1">
	<g id="svg_23" fill="#ffffff" fill-opacity="1">
		<rect x="307.8299865722656" y="377.1289978027344" width="63.720001220703125" height="15.668999671936035" id="svg_24" fill="#ffffff" fill-opacity="1"/>
	</g>
</g><g id="svg_25" class="" fill="#ffffff" fill-opacity="1">
	<g id="svg_26" fill="#ffffff" fill-opacity="1">
		<rect x="307.8299865722656" y="353.1029968261719" width="63.720001220703125" height="15.668999671936035" id="svg_27" fill="#ffffff" fill-opacity="1"/>
	</g>
</g><g id="svg_28" class="" fill="#ffffff" fill-opacity="1">
	<g id="svg_29" fill="#ffffff" fill-opacity="1">
		<rect x="307.8299865722656" y="329.0780029296875" width="63.720001220703125" height="15.668999671936035" id="svg_30" fill="#ffffff" fill-opacity="1"/>
	</g>
</g><g id="svg_31" class="" fill="#ffffff" fill-opacity="1">
	<g id="svg_32" fill="#ffffff" fill-opacity="1">
		<rect x="395.57598876953125" y="496.2120056152344" width="63.720001220703125" height="15.668999671936035" id="svg_33" fill="#ffffff" fill-opacity="1"/>
	</g>
</g><g id="svg_34" class="" fill="#ffffff" fill-opacity="1">
	<g id="svg_35" fill="#ffffff" fill-opacity="1">
		<rect x="395.57598876953125" y="472.1860046386719" width="63.720001220703125" height="15.668999671936035" id="svg_36" fill="#ffffff" fill-opacity="1"/>
	</g>
</g><g id="svg_37" class="" fill="#ffffff" fill-opacity="1">
	<g id="svg_38" fill="#ffffff" fill-opacity="1">
		<rect x="411.2439880371094" y="448.1610107421875" width="63.720001220703125" height="15.668999671936035" id="svg_39" fill="#ffffff" fill-opacity="1"/>
	</g>
</g><g id="svg_40" class="" fill="#ffffff" fill-opacity="1">
	<g id="svg_41" fill="#ffffff" fill-opacity="1">
		<rect x="395.57598876953125" y="424.135009765625" width="63.720001220703125" height="15.668999671936035" id="svg_42" fill="#ffffff" fill-opacity="1"/>
	</g>
</g><g id="svg_43" class="" fill="#ffffff" fill-opacity="1">
	<g id="svg_44" fill="#ffffff" fill-opacity="1">
		<rect x="395.57598876953125" y="400.1099853515625" width="63.720001220703125" height="15.668999671936035" id="svg_45" fill="#ffffff" fill-opacity="1"/>
	</g>
</g><g id="svg_46" class="" fill="#ffffff" fill-opacity="1">
	<g id="svg_47" fill="#ffffff" fill-opacity="1">
		<rect x="395.57598876953125" y="377.1289978027344" width="63.720001220703125" height="15.668999671936035" id="svg_48" fill="#ffffff" fill-opacity="1"/>
	</g>
</g><g id="svg_49" class="" fill="#ffffff" fill-opacity="1">
	<g id="svg_50" fill="#ffffff" fill-opacity="1">
		<rect x="402.88800048828125" y="353.1029968261719" width="63.720001220703125" height="15.668999671936035" id="svg_51" fill="#ffffff" fill-opacity="1"/>
	</g>
</g><g id="svg_52" class="" fill="#ffffff" fill-opacity="1">
	<g id="svg_53" fill="#ffffff" fill-opacity="1">
		<rect x="419.60101318359375" y="329.0780029296875" width="63.720001220703125" height="15.668999671936035" id="svg_54" fill="#ffffff" fill-opacity="1"/>
	</g>
</g><g id="svg_55" class="" fill="#ffffff" fill-opacity="1">
	<g id="svg_56" fill="#ffffff" fill-opacity="1">
		<rect x="315.1419982910156" y="305.052001953125" width="63.720001220703125" height="15.668999671936035" id="svg_57" fill="#ffffff" fill-opacity="1"/>
	</g>
</g><g id="svg_58" class="" fill="#ffffff" fill-opacity="1">
	<g id="svg_59" fill="#ffffff" fill-opacity="1">
		<rect x="315.1419982910156" y="281.0260009765625" width="63.720001220703125" height="15.668999671936035" id="svg_60" fill="#ffffff" fill-opacity="1"/>
	</g>
</g><g id="svg_61" class="" fill="#ffffff" fill-opacity="1">
	<g id="svg_62" fill="#ffffff" fill-opacity="1">
		<rect x="299.4729919433594" y="257.0010070800781" width="63.720001220703125" height="15.668999671936035" id="svg_63" fill="#ffffff" fill-opacity="1"/>
	</g>
</g><g id="svg_64" class="" fill="#ffffff" fill-opacity="1">
	<g id="svg_65" fill="#ffffff" fill-opacity="1">
		<path d="M156.181,201.214c-52.729,0-95.626,42.898-95.626,95.626c0,52.728,42.898,95.626,95.626,95.626    c52.729,0,95.627-42.898,95.627-95.626C251.809,244.113,208.91,201.214,156.181,201.214z M156.181,376.529    c-43.94,0-79.689-35.748-79.689-79.689c0-43.941,35.748-79.689,79.689-79.689S235.87,252.9,235.87,296.84    C235.87,340.781,200.122,376.529,156.181,376.529z" id="svg_66" fill="#ffffff" fill-opacity="1"/>
	</g>
</g><g id="svg_67" class="" fill="#ffffff" fill-opacity="1">
	<g id="svg_68" fill="#ffffff" fill-opacity="1">
		<path d="M156.181,129.495c-70.305,0-127.502,57.197-127.502,127.502v208.508c0,25.638,20.858,46.497,46.497,46.497h162.011    c25.638,0,46.497-20.858,46.497-46.497V256.997C283.684,186.691,226.487,129.495,156.181,129.495z M267.746,448.157    L267.746,448.157h-16.325v15.669h16.325v1.679c0,16.85-13.708,30.558-30.558,30.558H75.177c-16.85,0-30.558-13.708-30.558-30.558    v-1.679h15.643v-15.669H44.618v-191.16c0-61.517,50.047-111.564,111.564-111.564c61.517,0,111.563,50.047,111.563,111.564V448.157    z" id="svg_69" fill="#ffffff" fill-opacity="1"/>
	</g>
</g><g id="svg_70" class="" fill="#ffffff" fill-opacity="1">
	<g id="svg_71" fill="#ffffff" fill-opacity="1">
		<rect x="68.61900329589844" y="448.1610107421875" width="175.49099731445312" height="15.668999671936035" id="svg_72" fill="#ffffff" fill-opacity="1"/>
	</g>
</g><g id="svg_73" class="" fill="#ffffff" fill-opacity="1">
	<g id="svg_74" fill="#ffffff" fill-opacity="1">
		<path d="M156.181,225.12c-39.546,0-71.72,32.173-71.72,71.721s32.173,71.721,71.72,71.721s71.721-32.173,71.721-71.721    S195.728,225.12,156.181,225.12z M156.181,352.623c-30.758,0-55.781-25.024-55.781-55.782s25.023-55.782,55.781-55.782    s55.782,25.024,55.782,55.782S186.939,352.623,156.181,352.623z" id="svg_75" fill="#ffffff" fill-opacity="1"/>
	</g>
</g><g id="svg_76" class="" fill="#ffffff" fill-opacity="1">
	<g id="svg_77" fill="#ffffff" fill-opacity="1">
		<path d="M161.457,288.182c-8.004-3.014-11.3-4.991-11.3-8.1c0-2.634,1.976-5.273,8.096-5.273c6.784,0,11.112,2.169,13.56,3.205    l2.734-10.642c-3.109-1.506-7.347-2.826-13.656-3.109v-8.287h-9.228v8.948c-10.076,1.977-15.915,8.475-15.915,16.762    c0,9.136,6.877,13.843,16.953,17.232c6.967,2.356,9.981,4.615,9.981,8.195c0,3.767-3.671,5.836-9.04,5.836    c-6.122,0-11.68-1.977-15.633-4.142l-2.826,11.017c3.58,2.073,9.702,3.767,16.011,4.05v8.944h9.228v-9.603    c10.83-1.885,16.761-9.04,16.761-17.423C177.182,297.318,172.661,292.135,161.457,288.182z" id="svg_78" fill="#ffffff" fill-opacity="1"/>
	</g>
</g><g id="svg_79">
</g><g id="svg_80">
</g><g id="svg_81">
</g><g id="svg_82">
</g><g id="svg_83">
</g><g id="svg_84">
</g><g id="svg_85">
</g><g id="svg_86">
</g><g id="svg_87">
</g><g id="svg_88">
</g><g id="svg_89">
</g><g id="svg_90">
</g><g id="svg_91">
</g><g id="svg_92">
</g><g id="svg_93">
</g></g></svg>