<svg xmlns="http://www.w3.org/2000/svg" xmlns:xlink="http://www.w3.org/1999/xlink" version="1.1" style="enable-background:new 0 0 512 512;" xml:space="preserve" width="512" height="512"><rect id="backgroundrect" width="100%" height="100%" x="0" y="0" fill="none" stroke="none"/>









































<g class="currentLayer" style=""><title>Layer 1</title><g id="svg_1" class="" fill="#ffffff" fill-opacity="1">
	<g id="svg_2" fill="#ffffff" fill-opacity="1">
		<path d="M135.749,96.44V68.583c5.907,1.936,9.62,5.833,9.62,9.447c0,4.427,3.589,8.017,8.017,8.017s8.017-3.589,8.017-8.017    c0-12.784-10.768-23.198-25.654-25.983v-1.274c0-4.427-3.589-8.017-8.017-8.017s-8.017,3.589-8.017,8.017v1.274    c-14.885,2.786-25.654,13.2-25.654,25.983c0,17.862,14.266,25.369,25.654,29.69v27.858c-5.907-1.936-9.62-5.833-9.62-9.447    c0-4.427-3.589-8.017-8.017-8.017s-8.017,3.589-8.017,8.017c0,12.784,10.768,23.198,25.654,25.983v1.274    c0,4.427,3.589,8.017,8.017,8.017s8.017-3.589,8.017-8.017v-1.274c14.885-2.786,25.654-13.2,25.654-25.983    C161.403,108.268,147.137,100.761,135.749,96.44z M119.716,90.229c-7.992-3.917-9.62-7.338-9.62-12.199    c0-3.614,3.713-7.511,9.62-9.447V90.229z M135.749,135.577v-21.646c7.992,3.917,9.62,7.338,9.62,12.199    C145.369,129.744,141.656,133.641,135.749,135.577z" id="svg_3" fill="#ffffff" fill-opacity="1"/>
	</g>
</g><g id="svg_4" class="" fill="#ffffff" fill-opacity="1">
	<g id="svg_5" fill="#ffffff" fill-opacity="1">
		<path d="M256,59.858h-68.409c-4.427,0-8.017,3.589-8.017,8.017c0,4.427,3.589,8.017,8.017,8.017H256    c4.427,0,8.017-3.589,8.017-8.017C264.017,63.448,260.427,59.858,256,59.858z" id="svg_6" fill="#ffffff" fill-opacity="1"/>
	</g>
</g><g id="svg_7" class="" fill="#ffffff" fill-opacity="1">
	<g id="svg_8" fill="#ffffff" fill-opacity="1">
		<path d="M196.142,128.268h-8.551c-4.427,0-8.017,3.589-8.017,8.017s3.589,8.017,8.017,8.017h8.551    c4.427,0,8.017-3.589,8.017-8.017S200.569,128.268,196.142,128.268z" id="svg_9" fill="#ffffff" fill-opacity="1"/>
	</g>
</g><g id="svg_10" class="" fill="#ffffff" fill-opacity="1">
	<g id="svg_11" fill="#ffffff" fill-opacity="1">
		<path d="M341.512,188.124H102.079c-4.427,0-8.017,3.589-8.017,8.017s3.589,8.017,8.017,8.017h239.433    c4.427,0,8.017-3.589,8.017-8.017S345.939,188.124,341.512,188.124z" id="svg_12" fill="#ffffff" fill-opacity="1"/>
	</g>
</g><g id="svg_13" class="" fill="#ffffff" fill-opacity="1">
	<g id="svg_14" fill="#ffffff" fill-opacity="1">
		<path d="M179.039,239.431h-25.654c-4.427,0-8.017,3.589-8.017,8.017s3.589,8.017,8.017,8.017h25.654    c4.427,0,8.017-3.589,8.017-8.017S183.467,239.431,179.039,239.431z" id="svg_15" fill="#ffffff" fill-opacity="1"/>
	</g>
</g><g id="svg_16" class="" fill="#ffffff" fill-opacity="1">
	<g id="svg_17" fill="#ffffff" fill-opacity="1">
		<path d="M119.181,239.431 h-17.102 c-4.427,0 -8.017,3.589 -8.017,8.017 s3.589,8.017 8.017,8.017 h17.102 c4.427,0 8.017,-3.589 8.017,-8.017 S123.608,239.431 119.181,239.431 z" id="svg_18" fill="#ffffff" fill-opacity="1"/>
	</g>
</g><g id="svg_19" class="" fill="#ffffff" fill-opacity="1">
	<g id="svg_20" fill="#ffffff" fill-opacity="1">
		<path d="M179.039,273.636h-25.654c-4.427,0-8.017,3.589-8.017,8.017c0,4.427,3.589,8.017,8.017,8.017h25.654    c4.427,0,8.017-3.589,8.017-8.017C187.056,277.225,183.467,273.636,179.039,273.636z" id="svg_21" fill="#ffffff" fill-opacity="1"/>
	</g>
</g><g id="svg_22" class="" fill="#ffffff" fill-opacity="1">
	<g id="svg_23" fill="#ffffff" fill-opacity="1">
		<path d="M119.181,273.636h-17.102c-4.427,0-8.017,3.589-8.017,8.017c0,4.427,3.589,8.017,8.017,8.017h17.102    c4.427,0,8.017-3.589,8.017-8.017C127.198,277.225,123.608,273.636,119.181,273.636z" id="svg_24" fill="#ffffff" fill-opacity="1"/>
	</g>
</g><g id="svg_25" class="" fill="#ffffff" fill-opacity="1">
	<g id="svg_26" fill="#ffffff" fill-opacity="1">
		<path d="M179.039,307.841h-25.654c-4.427,0-8.017,3.589-8.017,8.017s3.589,8.017,8.017,8.017h25.654    c4.427,0,8.017-3.589,8.017-8.017S183.467,307.841,179.039,307.841z" id="svg_27" fill="#ffffff" fill-opacity="1"/>
	</g>
</g><g id="svg_28" class="" fill="#ffffff" fill-opacity="1">
	<g id="svg_29" fill="#ffffff" fill-opacity="1">
		<path d="M119.181,307.841h-17.102c-4.427,0-8.017,3.589-8.017,8.017s3.589,8.017,8.017,8.017h17.102    c4.427,0,8.017-3.589,8.017-8.017S123.608,307.841,119.181,307.841z" id="svg_30" fill="#ffffff" fill-opacity="1"/>
	</g>
</g><g id="svg_31" class="" fill="#ffffff" fill-opacity="1">
	<g id="svg_32" fill="#ffffff" fill-opacity="1">
		<path d="M179.039,342.045h-25.654c-4.427,0-8.017,3.589-8.017,8.017s3.589,8.017,8.017,8.017h25.654    c4.427,0,8.017-3.589,8.017-8.017S183.467,342.045,179.039,342.045z" id="svg_33" fill="#ffffff" fill-opacity="1"/>
	</g>
</g><g id="svg_34" class="" fill="#ffffff" fill-opacity="1">
	<g id="svg_35" fill="#ffffff" fill-opacity="1">
		<path d="M119.181,342.045h-17.102c-4.427,0-8.017,3.589-8.017,8.017s3.589,8.017,8.017,8.017h17.102    c4.427,0,8.017-3.589,8.017-8.017S123.608,342.045,119.181,342.045z" id="svg_36" fill="#ffffff" fill-opacity="1"/>
	</g>
</g><g id="svg_37" class="" fill="#ffffff" fill-opacity="1">
	<g id="svg_38" fill="#ffffff" fill-opacity="1">
		<path d="M179.039,376.25h-25.654c-4.427,0-8.017,3.589-8.017,8.017s3.589,8.017,8.017,8.017h25.654    c4.427,0,8.017-3.589,8.017-8.017S183.467,376.25,179.039,376.25z" id="svg_39" fill="#ffffff" fill-opacity="1"/>
	</g>
</g><g id="svg_40" class="" fill="#ffffff" fill-opacity="1">
	<g id="svg_41" fill="#ffffff" fill-opacity="1">
		<path d="M119.181,376.25h-17.102c-4.427,0-8.017,3.589-8.017,8.017s3.589,8.017,8.017,8.017h17.102    c4.427,0,8.017-3.589,8.017-8.017S123.608,376.25,119.181,376.25z" id="svg_42" fill="#ffffff" fill-opacity="1"/>
	</g>
</g><g id="svg_43" class="" fill="#ffffff" fill-opacity="1">
	<g id="svg_44" fill="#ffffff" fill-opacity="1">
		<path d="M281.654,128.268h-8.551c-4.427,0-8.017,3.589-8.017,8.017s3.589,8.017,8.017,8.017h8.551    c4.427,0,8.017-3.589,8.017-8.017S286.081,128.268,281.654,128.268z" id="svg_45" fill="#ffffff" fill-opacity="1"/>
	</g>
</g><g id="svg_46" class="" fill="#ffffff" fill-opacity="1">
	<g id="svg_47" fill="#ffffff" fill-opacity="1">
		<path d="M324.409,128.268h-8.551c-4.427,0-8.017,3.589-8.017,8.017s3.589,8.017,8.017,8.017h8.551    c4.427,0,8.017-3.589,8.017-8.017S328.837,128.268,324.409,128.268z" id="svg_48" fill="#ffffff" fill-opacity="1"/>
	</g>
</g><g id="svg_49" class="" fill="#ffffff" fill-opacity="1">
	<g id="svg_50" fill="#ffffff" fill-opacity="1">
		<path d="M238.898,128.268h-8.551c-4.427,0-8.017,3.589-8.017,8.017s3.589,8.017,8.017,8.017h8.551    c4.427,0,8.017-3.589,8.017-8.017S243.325,128.268,238.898,128.268z" id="svg_51" fill="#ffffff" fill-opacity="1"/>
	</g>
</g><g id="svg_52" class="" fill="#ffffff" fill-opacity="1">
	<g id="svg_53" fill="#ffffff" fill-opacity="1">
		<path d="M273.102,94.063h-85.512c-4.427,0-8.017,3.589-8.017,8.017s3.589,8.017,8.017,8.017h85.512    c4.427,0,8.017-3.589,8.017-8.017S277.53,94.063,273.102,94.063z" id="svg_54" fill="#ffffff" fill-opacity="1"/>
	</g>
</g><g id="svg_55" class="selected" fill="#ffffff" fill-opacity="1">
	<g id="svg_56" fill="#ffffff" fill-opacity="1">
		<path d="M427.024,222.329h-34.739v-128.8c0-2.126-0.844-4.165-2.348-5.668L304.424,2.348C302.921,0.844,300.882,0,298.756,0    H76.425C62.574,0,51.306,11.268,51.306,25.119v410.455c0,13.851,11.268,25.119,25.119,25.119h128.802v17.637    c0,18.566,15.105,33.67,33.67,33.67h188.126c18.566,0,33.67-15.105,33.67-33.67V255.999    C460.694,237.433,445.589,222.329,427.024,222.329z M306.773,27.37l58.142,58.142h-40.505c-9.725,0-17.637-7.912-17.637-17.637    V27.37z M205.227,255.999v188.66H76.425c-5.01,0-9.086-4.076-9.086-9.086V25.119c0-5.01,4.076-9.086,9.086-9.086h214.314v51.842    c0,18.566,15.105,33.67,33.67,33.67h51.842v120.783H238.898C220.332,222.329,205.227,237.433,205.227,255.999z M444.661,478.33    c0,9.725-7.912,17.637-17.637,17.637H238.898c-9.725,0-17.637-7.912-17.637-17.637V255.999c0-9.725,7.912-17.637,17.637-17.637    h188.126c9.725,0,17.637,7.912,17.637,17.637V478.33z" id="svg_57" fill="#ffffff" fill-opacity="1"/>
	</g>
</g><g id="svg_58" class="" fill="#ffffff" fill-opacity="1">
	<g id="svg_59" fill="#ffffff" fill-opacity="1">
		<path d="M409.921,256.533H256c-9.136,0-16.568,7.432-16.568,16.568v34.205c0,9.136,7.432,16.568,16.568,16.568h153.921    c9.136,0,16.568-7.432,16.568-16.568v-34.205C426.489,263.965,419.057,256.533,409.921,256.533z M410.456,307.306    c0,0.295-0.239,0.534-0.534,0.534H256c-0.295,0-0.534-0.239-0.534-0.534v-34.205c0-0.295,0.239-0.534,0.534-0.534h153.921    c0.295,0,0.534,0.239,0.534,0.534V307.306z" id="svg_60" fill="#ffffff" fill-opacity="1"/>
	</g>
</g><g id="svg_61" class="" fill="#ffffff" fill-opacity="1">
	<g id="svg_62" fill="#ffffff" fill-opacity="1">
		<path d="M273.102,350.596H256c-9.136,0-16.568,7.432-16.568,16.568v17.102c0,9.136,7.432,16.568,16.568,16.568h17.102    c9.136,0,16.568-7.432,16.568-16.568v-17.102C289.67,358.028,282.238,350.596,273.102,350.596z M273.637,384.267    c0,0.295-0.239,0.534-0.534,0.534H256c-0.295,0-0.534-0.239-0.534-0.534v-17.102c0-0.295,0.239-0.534,0.534-0.534h17.102    c0.295,0,0.534,0.239,0.534,0.534V384.267z" id="svg_63" fill="#ffffff" fill-opacity="1"/>
	</g>
</g><g id="svg_64" class="" fill="#ffffff" fill-opacity="1">
	<g id="svg_65" fill="#ffffff" fill-opacity="1">
		<path d="M409.921,350.596h-17.102c-9.136,0-16.568,7.432-16.568,16.568v17.102c0,9.136,7.432,16.568,16.568,16.568h17.102    c9.136,0,16.568-7.432,16.568-16.568v-17.102C426.489,358.028,419.057,350.596,409.921,350.596z M410.456,384.267    c0,0.295-0.239,0.534-0.534,0.534h-17.102c-0.295,0-0.534-0.239-0.534-0.534v-17.102c0-0.295,0.239-0.534,0.534-0.534h17.102    c0.295,0,0.534,0.239,0.534,0.534V384.267z" id="svg_66" fill="#ffffff" fill-opacity="1"/>
	</g>
</g><g id="svg_67" class="" fill="#ffffff" fill-opacity="1">
	<g id="svg_68" fill="#ffffff" fill-opacity="1">
		<path d="M341.512,350.596h-17.102c-9.136,0-16.568,7.432-16.568,16.568v17.102c0,9.136,7.432,16.568,16.568,16.568h17.102    c9.136,0,16.568-7.432,16.568-16.568v-17.102C358.08,358.028,350.648,350.596,341.512,350.596z M342.046,384.267    c0,0.295-0.239,0.534-0.534,0.534h-17.102c-0.295,0-0.534-0.239-0.534-0.534v-17.102c0-0.295,0.239-0.534,0.534-0.534h17.102    c0.295,0,0.534,0.239,0.534,0.534V384.267z" id="svg_69" fill="#ffffff" fill-opacity="1"/>
	</g>
</g><g id="svg_70" class="" fill="#ffffff" fill-opacity="1">
	<g id="svg_71" fill="#ffffff" fill-opacity="1">
		<path d="M273.102,419.006H256c-9.136,0-16.568,7.432-16.568,16.568v17.102c0,9.136,7.432,16.568,16.568,16.568h17.102    c9.136,0,16.568-7.432,16.568-16.568v-17.102C289.67,426.438,282.238,419.006,273.102,419.006z M273.637,452.676    c0,0.295-0.239,0.534-0.534,0.534H256c-0.295,0-0.534-0.239-0.534-0.534v-17.102c0-0.295,0.239-0.534,0.534-0.534h17.102    c0.295,0,0.534,0.239,0.534,0.534V452.676z" id="svg_72" fill="#ffffff" fill-opacity="1"/>
	</g>
</g><g id="svg_73" class="" fill="#ffffff" fill-opacity="1">
	<g id="svg_74" fill="#ffffff" fill-opacity="1">
		<path d="M409.921,419.006h-17.102c-9.136,0-16.568,7.432-16.568,16.568v17.102c0,9.136,7.432,16.568,16.568,16.568h17.102    c9.136,0,16.568-7.432,16.568-16.568v-17.102C426.489,426.438,419.057,419.006,409.921,419.006z M410.456,452.676    c0,0.295-0.239,0.534-0.534,0.534h-17.102c-0.295,0-0.534-0.239-0.534-0.534v-17.102c0-0.295,0.239-0.534,0.534-0.534h17.102    c0.295,0,0.534,0.239,0.534,0.534V452.676z" id="svg_75" fill="#ffffff" fill-opacity="1"/>
	</g>
</g><g id="svg_76" class="" fill="#ffffff" fill-opacity="1">
	<g id="svg_77" fill="#ffffff" fill-opacity="1">
		<path d="M341.512,419.006h-17.102c-9.136,0-16.568,7.432-16.568,16.568v17.102c0,9.136,7.432,16.568,16.568,16.568h17.102    c9.136,0,16.568-7.432,16.568-16.568v-17.102C358.08,426.438,350.648,419.006,341.512,419.006z M342.046,452.676    c0,0.295-0.239,0.534-0.534,0.534h-17.102c-0.295,0-0.534-0.239-0.534-0.534v-17.102c0-0.295,0.239-0.534,0.534-0.534h17.102    c0.295,0,0.534,0.239,0.534,0.534V452.676z" id="svg_78" fill="#ffffff" fill-opacity="1"/>
	</g>
</g><g id="svg_79">
</g><g id="svg_80">
</g><g id="svg_81">
</g><g id="svg_82">
</g><g id="svg_83">
</g><g id="svg_84">
</g><g id="svg_85">
</g><g id="svg_86">
</g><g id="svg_87">
</g><g id="svg_88">
</g><g id="svg_89">
</g><g id="svg_90">
</g><g id="svg_91">
</g><g id="svg_92">
</g><g id="svg_93">
</g></g></svg>